<?xml version="1.0" encoding="utf-8"?>
<!-- Generator: Adobe Illustrator 26.4.1, SVG Export Plug-In . SVG Version: 6.00 Build 0)  -->
<svg version="1.1" id="Layer_1" xmlns="http://www.w3.org/2000/svg" xmlns:xlink="http://www.w3.org/1999/xlink" x="0px" y="0px"
	 viewBox="0 0 878 339" style="enable-background:new 0 0 878 339;" xml:space="preserve">
<style type="text/css">
	.st0{fill:#36B6E6;}
	.st1{fill:#FFFFFF;}
</style>
<path class="st0" d="M53.4,152.6c-12.1,0-22.5,4.6-30.8,13.8C14.2,175.7,10,188,10,203.6s4.1,28.2,12.2,37.7s18.5,14.3,31.1,14.3
	s22.9-4.7,31-14.2c8.1-9.4,12.1-22.1,12.1-37.8c0-15.8-4.1-28.2-12.4-37.3C75.8,157.1,65.5,152.6,53.4,152.6z"/>
<path class="st1" d="M261,149.3h-36.3v74.5c0,9.5,2.2,16.7,6.5,21.7c4.3,4.9,10,7.3,17.2,7.3c7.1,0,12.6-1.8,16.2-5.4
	c1.9-1.7,3.7-1.6,5.1,0.3l6.9,8.9c0.7,0.7,1.2,1.6,1.2,2.4c0,0.8-0.5,1.9-1.7,3c-8.4,7.4-18.9,11.2-31.7,11.2
	c-12.7,0-23.1-4.2-31.2-12.5c-8.2-8.3-12.1-20.4-12.1-36.2v-75.1h-16h-8.5v102.7H195v5.1v12.5v3.5h-3.7h-53.7h-2
	c-0.4,0.1-0.8,0.2-1.3,0.2h-24.5c-1,0-2.1-0.1-3-0.2h-9.3v-11.6v-9.5v-6.3h-0.3c-3,7.9-8.6,14.8-16.9,20.7
	c-8.3,5.9-18.3,8.9-30.1,8.9c-18.7,0-34-6.6-45.7-19.7C2.8,254,1.4,252,0,250v66.2h238.5c30.1,0,54.6-24.5,54.6-54.6v-112H261V149.3
	z"/>
<path class="st1" d="M54.6,22.8C24.5,22.8,0,47.3,0,77.5v80.6c1.4-2,2.9-3.9,4.5-5.7c11.7-13.1,27-19.6,46-19.6
	c11.6,0,21.3,2.7,29,8.1c7.6,5.3,13.2,11.8,16.6,19.6h0.3c-0.2-3.8-0.3-6.8-0.3-9.3v-61H80.3c-2.4,0-3.7-1.2-3.7-3.3V74.7
	c0-2.2,1.3-3.3,3.7-3.3h34.9c2.3,0,3.3,1.2,3.3,3.3V252h34.3v-86.1v-16.4V130h0.1v-0.5h47.7v-28.4c0-2.7,1.4-4,4-4h16
	c2.5,0,3.8,1.4,3.8,4v28.4h68.5V22.8H54.6z"/>
<circle class="st0" cx="164.9" cy="108.2" r="11.4"/>
<path class="st1" d="M395.1,154.5h-9.6c-1.7,0-2.9-0.3-3.7-1c-0.7-0.7-1.2-1.9-1.2-3.6v-6.2h-0.1c-1.2,3-3.3,5.8-6.6,8.1
	s-7.1,3.5-11.8,3.5c-7.3,0-13.3-2.6-17.9-7.7c-4.6-5.1-6.9-11.9-6.9-20.2c0-8.4,2.3-15.1,6.9-20.2c4.6-5.1,10.6-7.6,18-7.6
	c4.6,0,8.4,1,11.3,3.1c3,2.1,5.2,4.6,6.5,7.6h0.1c-0.1-1.5-0.1-2.7-0.1-3.7V82.8h-6.2c-0.9,0-1.5-0.4-1.5-1.4v-4.7
	c0-0.8,0.5-1.4,1.5-1.4h13.7c0.8,0,1.4,0.4,1.4,1.4v70.5h6.2c0.8,0,1.4,0.4,1.4,1.4v4.7C396.3,154.1,395.9,154.5,395.1,154.5z
	 M346.3,127.2c0,6.1,1.6,11,4.8,14.8c3.2,3.8,7.2,5.7,12.1,5.7c4.9,0,9-1.9,12.1-5.5c3.1-3.7,4.7-8.7,4.7-14.9
	c0-6.2-1.6-11-4.8-14.7c-3.2-3.6-7.2-5.3-12-5.3s-8.8,1.8-12,5.4C348,116.3,346.3,121.1,346.3,127.2z"/>
<path class="st1" d="M446.3,147.6c-5.1,5.1-11.7,7.7-19.8,7.7s-14.6-2.5-19.8-7.6c-5.1-5.1-7.7-11.9-7.7-20.4s2.6-15.3,7.9-20.2
	c5.2-5,11.8-7.5,19.7-7.5c7.9,0,14.4,2.5,19.6,7.5c5.2,5,7.7,11.7,7.7,20.2C453.9,135.7,451.4,142.5,446.3,147.6z M408.3,127.3
	c0,6.1,1.8,10.9,5.3,14.7c3.6,3.8,7.9,5.7,13,5.7s9.4-1.9,13-5.7c3.6-3.8,5.3-8.6,5.3-14.7c0-6.1-1.8-10.9-5.3-14.6
	c-3.6-3.7-7.9-5.5-12.9-5.5s-9.3,1.9-12.9,5.5C410.1,116.4,408.3,121.3,408.3,127.3z"/>
<path class="st1" d="M508.4,141.8c0.4,0.4,0.6,0.7,0.6,1c0,0.3-0.2,0.7-0.5,1.4c-0.3,0.5-1,1.4-2.1,2.5c-1,1.2-2.5,2.3-4.4,3.8
	c-1.9,1.4-4.3,2.6-7.3,3.6s-6.2,1.5-9.5,1.5c-7.7,0-14.1-2.5-19.4-7.6c-5.2-5-7.7-11.9-7.7-20.4c0-8.6,2.6-15.3,7.7-20.3
	c5.1-5,11.5-7.4,19.1-7.4c7.5,0,13.2,2.7,17,8.2h0.1l-0.1-6.1c0-0.9,0.5-1.5,1.5-1.5h4.2c0.8,0,1.4,0.5,1.4,1.5v18.7
	c0,0.8-0.4,1.4-1.4,1.4h-5c-0.8,0-1.4-0.4-1.4-1.4v-1.9c-0.1-2.6-1.6-5.2-4.5-7.6c-2.9-2.4-6.7-3.7-11.2-3.7
	c-4.5,0-8.7,1.8-12.4,5.4c-3.8,3.6-5.7,8.5-5.7,14.8c0,6.2,1.9,11.1,5.5,14.8s7.7,5.4,12.4,5.4c4.6,0,8.5-0.9,11.6-2.9
	c3.2-2,5.3-3.9,6.5-5.7c0.5-0.8,1.2-0.9,1.9-0.3L508.4,141.8z"/>
<path class="st1" d="M550.4,149c0.3,0.3,0.4,0.6,0.4,0.9s-0.2,0.7-0.6,1.2c-3.2,2.8-7.3,4.3-12.1,4.3c-4.9,0-8.9-1.6-12-4.8
	s-4.7-7.9-4.7-13.9v-28.9h-6.2c-1,0-1.6-0.5-1.6-1.5v-4.5c0-0.9,0.5-1.5,1.6-1.5h6.2V89.2c0-1,0.5-1.6,1.6-1.6h6.2
	c0.9,0,1.5,0.5,1.5,1.6v11.1h14c1,0,1.6,0.5,1.6,1.5v4.5c0,0.9-0.5,1.5-1.6,1.5h-14v28.7c0,3.7,0.8,6.5,2.5,8.4s3.9,2.8,6.6,2.8
	s4.8-0.7,6.3-2.1c0.7-0.6,1.4-0.6,2,0.1L550.4,149z"/>
<path class="st1" d="M597.5,147.6c-5.1,5.1-11.7,7.7-19.8,7.7c-8.1,0-14.6-2.5-19.8-7.6c-5.1-5.1-7.7-11.9-7.7-20.4
	s2.6-15.3,7.9-20.2c5.2-5,11.8-7.5,19.7-7.5s14.4,2.5,19.6,7.5c5.2,5,7.7,11.7,7.7,20.2C605.2,135.7,602.7,142.5,597.5,147.6z
	 M559.5,127.3c0,6.1,1.8,10.9,5.3,14.7c3.6,3.8,7.9,5.7,13,5.7s9.4-1.9,13-5.7c3.6-3.8,5.3-8.6,5.3-14.7c0-6.1-1.8-10.9-5.3-14.6
	c-3.6-3.7-7.9-5.5-12.9-5.5c-5,0-9.3,1.9-12.9,5.5C561.3,116.4,559.5,121.3,559.5,127.3z"/>
<path class="st1" d="M632,154.5h-21c-0.9,0-1.5-0.4-1.5-1.4v-4.7c0-0.8,0.5-1.4,1.5-1.4h6.1v-39.5h-6.1c-0.9,0-1.5-0.4-1.5-1.4v-4.6
	c0-0.8,0.5-1.4,1.5-1.4h12.9c0.9,0,1.5,0.4,1.5,1.4v13.8h0.3c0.2-1.2,0.9-2.8,2.3-4.8c1.4-2.1,2.7-3.8,4.4-5.1
	c1.6-1.4,3.9-2.6,6.8-3.7c2.9-1,6.4-1.7,10-1.7c0.9,0,1.5,0.5,1.5,1.5v5.9c0,0.9-0.5,1.5-1.5,1.5h-2.3c-6.3,0-11.3,2-15.1,6.1
	c-3.8,4.1-5.7,8.7-5.7,13.8v18.5h5.9c0.9,0,1.5,0.4,1.5,1.4v4.7C633.5,154.1,632.9,154.5,632,154.5z"/>
<path class="st1" d="M676.2,155.4c-4.9,0-8.9-0.9-11.8-2.7c-2.9-1.9-4.8-3.6-5.5-5.2h-0.2c0.1,3.6,0.2,5.5,0.2,5.8
	c0,0.9-0.5,1.5-1.6,1.5h-3.8c-0.9,0-1.5-0.5-1.5-1.5v-16.5c0-0.9,0.5-1.5,1.5-1.5h4.3c1,0,1.6,0.5,1.6,1.5v2.2
	c0.7,2.2,2.3,4.2,4.6,6.1c2.8,2.2,6.3,3.3,10.5,3.3c8.3,0,12.4-2.8,12.4-8.6c0-2-1.2-3.6-3.5-4.8c-2.3-1.3-5-2.2-8.4-3
	c-3.2-0.8-6.5-1.7-9.7-2.7c-3.2-1-6-2.7-8.3-5s-3.5-5.2-3.5-8.8c0-4.8,1.7-8.6,5.2-11.4c3.5-2.8,7.9-4.3,13.2-4.3
	c7.3,0,12.5,2.1,15.7,6.4h0.2c-0.1-2.6-0.2-4-0.2-4.1c0-0.9,0.5-1.5,1.5-1.5h3.6c0.9,0,1.5,0.5,1.5,1.5v15.3c0,0.9-0.5,1.5-1.5,1.5
	h-4.3c-1,0-1.6-0.5-1.6-1.5v-1.6c0-2-1.2-4-3.5-5.9c-2.3-2-5.3-2.9-9-2.9s-6.5,0.7-8.6,2.3c-2.1,1.6-3,3.6-3,6
	c0,2.5,1.2,4.4,3.5,5.8c2.3,1.4,5.1,2.4,8.5,3.2c3.3,0.7,6.6,1.7,9.9,2.6c3.3,0.9,6.1,2.5,8.5,4.7c2.4,2.2,3.5,5.2,3.5,9.1
	c0,3.9-1.7,7.3-5,10.3C688,153.9,683,155.4,676.2,155.4z"/>
<path class="st0" d="M754.5,154.5h-21c-0.9,0-1.5-0.4-1.5-1.4v-4.7c0-0.8,0.5-1.4,1.5-1.4h6.1v-39.5h-6.1c-0.9,0-1.5-0.4-1.5-1.4
	v-4.6c0-0.8,0.5-1.4,1.5-1.4h13.9c0.8,0,1.4,0.4,1.4,1.4v45.5h5.9c0.9,0,1.5,0.4,1.5,1.4v4.7C755.9,154.1,755.5,154.5,754.5,154.5z
	 M748.3,84c1.3,1.3,1.8,2.7,1.8,4.4s-0.6,3.1-1.8,4.3c-1.3,1.2-2.6,1.8-4.4,1.8s-3.1-0.6-4.4-1.8c-1.3-1.2-1.8-2.6-1.8-4.3
	c0-1.7,0.6-3.1,1.8-4.4c1.3-1.3,2.6-1.9,4.4-1.9S747,82.7,748.3,84z"/>
<path class="st0" d="M819.2,154.5h-10.5c-3.1,0-4.7-1.6-4.7-4.6v-29c0-4.3-1-7.5-3-9.9c-2.1-2.3-5-3.6-9-3.6c-5.7,0-10,2.3-13.2,6.9
	c-0.4,0.4-0.8,1.3-1.5,2.4v30.4h5.9c0.9,0,1.5,0.4,1.5,1.4v4.7c0,0.8-0.5,1.4-1.5,1.4h-21c-0.9,0-1.5-0.4-1.5-1.4v-4.7
	c0-0.8,0.5-1.4,1.5-1.4h6.1v-39.5h-6.1c-0.9,0-1.5-0.4-1.5-1.4v-4.6c0-0.8,0.5-1.4,1.5-1.4H775c0.9,0,1.5,0.4,1.5,1.4l-0.2,7.5h0.3
	c3.9-6.4,9.7-9.6,17.8-9.6c5.9,0,10.5,1.8,13.8,5.2c3.3,3.5,5,8.2,5,14v28.5h6.2c0.9,0,1.5,0.4,1.5,1.4v4.7
	C820.5,154.1,820.1,154.5,819.2,154.5z"/>
<path class="st1" d="M374.1,243.2c0.3,0.3,0.4,0.6,0.4,0.9c0,0.3-0.2,0.7-0.6,1.2c-3.2,2.8-7.3,4.3-12.1,4.3c-4.9,0-8.9-1.6-12-4.8
	s-4.7-7.9-4.7-13.9V202h-6.2c-1,0-1.6-0.5-1.6-1.5V196c0-0.9,0.5-1.5,1.6-1.5h6.2v-11.1c0-1,0.5-1.6,1.6-1.6h6.2
	c0.9,0,1.5,0.5,1.5,1.6v11.1h14c1,0,1.6,0.5,1.6,1.5v4.5c0,0.9-0.5,1.5-1.6,1.5h-14v28.7c0,3.7,0.8,6.5,2.5,8.4
	c1.7,1.9,3.9,2.8,6.6,2.8s4.8-0.7,6.3-2.1c0.7-0.6,1.4-0.6,2,0.1L374.1,243.2z"/>
<path class="st1" d="M423,222.8h-39.7c0.3,6.1,2.2,10.8,5.8,14.1c3.6,3.3,7.5,4.9,12,4.9c4.5,0,8.4-0.9,11.5-2.8
	c3.2-1.9,5.3-3.8,6.5-5.7c0.6-0.7,1.3-0.8,2-0.3l2.9,2.9c0.4,0.4,0.6,0.8,0.6,1.2c0,0.3-0.2,0.7-0.5,1.3c-0.3,0.5-1,1.4-2,2.4
	c-1,1.2-2.5,2.3-4.4,3.8c-1.9,1.4-4.3,2.6-7.3,3.6s-6.2,1.5-9.5,1.5c-7.7,0-14.1-2.5-19.4-7.6c-5.2-5-7.7-11.9-7.7-20.4
	c0-8.6,2.6-15.3,7.7-20.3c5.1-4.9,11.4-7.4,18.9-7.4c7.4,0,13.3,2.4,17.6,7.2c4.3,4.8,6.4,11.3,6.4,19.5c0,0.3,0,0.6,0,0.8
	C424.6,222.3,424.1,222.8,423,222.8z M411.2,205.1c-2.6-2.7-6.2-4.1-10.6-4.1s-8.2,1.3-11.3,3.8c-3.1,2.5-5,6.3-5.7,11.2h31.8
	C415.3,211.5,413.8,207.8,411.2,205.1z"/>
<path class="st1" d="M479.8,236c0.4,0.4,0.6,0.7,0.6,1s-0.2,0.7-0.5,1.4c-0.3,0.5-1,1.4-2.1,2.5c-1,1.2-2.5,2.3-4.4,3.8
	c-1.9,1.4-4.3,2.6-7.3,3.6s-6.2,1.5-9.5,1.5c-7.7,0-14.1-2.5-19.4-7.6c-5.2-5-7.7-11.9-7.7-20.4c0-8.6,2.6-15.3,7.7-20.3
	s11.5-7.4,19.1-7.4c7.5,0,13.2,2.7,17,8.2h0.1l-0.1-6.1c0-0.9,0.5-1.5,1.5-1.5h4.2c0.8,0,1.4,0.5,1.4,1.5v18.7
	c0,0.8-0.4,1.4-1.4,1.4h-5c-0.8,0-1.4-0.4-1.4-1.4v-1.9c-0.1-2.6-1.6-5.2-4.5-7.6c-2.9-2.4-6.7-3.7-11.2-3.7
	c-4.5,0-8.7,1.8-12.4,5.4c-3.8,3.6-5.7,8.5-5.7,14.8c0,6.2,1.9,11.1,5.5,14.8c3.7,3.7,7.7,5.4,12.4,5.4c4.6,0,8.5-0.9,11.6-2.9
	c3.2-2,5.3-3.9,6.5-5.7c0.5-0.8,1.2-0.9,1.9-0.3L479.8,236z"/>
<path class="st1" d="M543.3,248.7h-10.5c-3.1,0-4.7-1.6-4.7-4.6v-29c0-4.3-1-7.5-3-9.9c-2.1-2.3-5-3.6-9-3.6c-3,0-5.3,0.4-6.9,1.4
	c-1.6,0.9-2.8,1.8-3.6,2.4c-0.8,0.7-1.5,1.4-2,2c-0.8,1.2-1.6,2.4-2.2,3.7v30.3h5.9c0.9,0,1.5,0.4,1.5,1.4v4.7
	c0,0.8-0.5,1.4-1.5,1.4h-21c-0.9,0-1.5-0.4-1.5-1.4v-4.7c0-0.8,0.5-1.4,1.5-1.4h6.1V177h-6.1c-0.9,0-1.5-0.4-1.5-1.4V171
	c0-0.8,0.5-1.4,1.5-1.4h13.9c0.8,0,1.4,0.4,1.4,1.4v24.6c0,2.4-0.1,4.7-0.4,6.7h0.2c3.6-5.7,9.3-8.5,17.2-8.5
	c5.9,0,10.5,1.8,13.8,5.2c3.3,3.5,5,8.2,5,14v28.5h6.2c0.9,0,1.5,0.4,1.5,1.4v4.7C544.8,248.3,544.4,248.7,543.3,248.7z"/>
<path class="st1" d="M607.5,248.7H597c-3.1,0-4.7-1.6-4.7-4.6v-29c0-4.3-1-7.5-3-9.9c-2.1-2.3-5-3.6-9-3.6c-5.7,0-10,2.3-13.2,6.9
	c-0.4,0.4-0.8,1.3-1.5,2.4v30.4h5.9c0.9,0,1.5,0.4,1.5,1.4v4.7c0,0.8-0.5,1.4-1.5,1.4h-21c-0.9,0-1.5-0.4-1.5-1.4v-4.7
	c0-0.8,0.5-1.4,1.5-1.4h6.1v-39.5h-6.1c-0.9,0-1.5-0.4-1.5-1.4v-4.6c0-0.8,0.5-1.4,1.5-1.4h12.9c0.9,0,1.5,0.4,1.5,1.4l-0.2,7.5h0.3
	c3.9-6.4,9.7-9.6,17.8-9.6c5.9,0,10.5,1.8,13.8,5.2s5,8.2,5,14v28.5h6.2c0.9,0,1.5,0.4,1.5,1.4v4.7
	C609,248.3,608.5,248.7,607.5,248.7z"/>
<path class="st1" d="M657.8,241.8c-5.1,5.1-11.7,7.7-19.8,7.7c-8.1,0-14.6-2.5-19.8-7.6c-5.1-5.1-7.7-11.9-7.7-20.4
	c0-8.5,2.6-15.3,7.9-20.2c5.2-5,11.8-7.5,19.7-7.5s14.4,2.5,19.6,7.5c5.2,5,7.7,11.7,7.7,20.2C665.5,229.9,663,236.7,657.8,241.8z
	 M619.8,221.5c0,6.1,1.8,10.9,5.3,14.7c3.6,3.8,7.9,5.7,13,5.7s9.4-1.9,13-5.7c3.6-3.8,5.3-8.6,5.3-14.7c0-6.1-1.8-10.9-5.3-14.6
	c-3.6-3.7-7.9-5.5-12.9-5.5c-5,0-9.3,1.9-12.9,5.5C621.7,210.6,619.8,215.6,619.8,221.5z"/>
<path class="st1" d="M691,248.7h-21c-0.9,0-1.5-0.4-1.5-1.4v-4.7c0-0.8,0.5-1.4,1.5-1.4h6.1V177H670c-0.9,0-1.5-0.4-1.5-1.4V171
	c0-0.8,0.5-1.4,1.5-1.4h12.1c2,0,2.9,0.9,2.9,2.7v69h5.9c0.9,0,1.5,0.4,1.5,1.4v4.7C692.4,248.3,692,248.7,691,248.7z"/>
<path class="st1" d="M743.5,241.8c-5.1,5.1-11.7,7.7-19.8,7.7c-8.1,0-14.6-2.5-19.8-7.6c-5.1-5.1-7.7-11.9-7.7-20.4
	c0-8.5,2.6-15.3,7.9-20.2c5.2-5,11.8-7.5,19.7-7.5s14.4,2.5,19.6,7.5c5.2,5,7.7,11.7,7.7,20.2C751.2,229.9,748.6,236.7,743.5,241.8z
	 M705.6,221.5c0,6.1,1.8,10.9,5.3,14.7c3.6,3.8,7.9,5.7,13,5.7s9.4-1.9,13-5.7c3.6-3.8,5.3-8.6,5.3-14.7c0-6.1-1.8-10.9-5.3-14.6
	s-7.9-5.5-12.9-5.5c-5,0-9.3,1.9-12.9,5.5C707.4,210.6,705.6,215.6,705.6,221.5z"/>
<path class="st1" d="M781,274.6c-3.7,0-6.5-0.2-8.4-0.7s-3.3-0.9-4.5-1.4c-1.2-0.4-2.1-0.8-2.9-1.3c-0.8-0.4-1.6-0.8-2.3-1.3
	c-3.2-2.1-4.4-3.7-3.7-4.6l2.8-4.1c0.4-0.6,1-0.7,1.9-0.1c0.1,0,0.3,0.2,0.7,0.5c0.4,0.3,0.8,0.6,1.3,0.9c0.4,0.3,0.9,0.6,1.7,1
	c0.7,0.4,1.5,0.7,2.4,1.2c0.8,0.3,1.9,0.6,2.8,0.9c2.4,0.6,5.1,0.9,8.1,0.9c5.3,0,9.5-1.3,12.8-3.8c3.2-2.5,4.8-6.5,4.8-11.9v-12.6
	c-1.4,3-3.6,5.8-6.6,8s-6.8,3.3-11.4,3.3c-7.5,0-13.5-2.6-18-7.9c-4.5-5.2-6.8-11.9-6.8-20.3c0-8.3,2.3-15,6.9-20.1
	c4.6-5,10.6-7.6,17.9-7.6c4.6,0,8.4,1,11.5,3.1c3.1,2.1,5.3,4.6,6.8,7.6h0.2l-0.1-8.7c0-0.8,0.4-1.4,1.4-1.4h13
	c0.8,0,1.4,0.4,1.4,1.4v4.7c0,0.8-0.4,1.4-1.4,1.4h-6v49c0,7.9-2.4,13.8-7.2,17.8C795.2,272.6,788.8,274.6,781,274.6z M764.6,221.6
	c0,6.1,1.6,11,4.8,14.7c3.2,3.7,7.3,5.5,12.1,5.5c4.8,0,8.9-1.9,12-5.5c3.2-3.7,4.8-8.6,4.8-14.8c0-6.2-1.6-11.1-4.8-14.7
	s-7.2-5.4-12-5.4c-4.8,0-8.9,1.9-12.1,5.5C766.3,210.6,764.6,215.6,764.6,221.6z"/>
<path class="st1" d="M843.7,247.6c-1.2,0-2.1-0.9-2.8-2.7L824,202h-6.1c-0.8,0-1.4-0.4-1.4-1.4v-4.7c0-0.8,0.4-1.4,1.4-1.4h20
	c0.9,0,1.5,0.4,1.5,1.4v4.7c0,0.8-0.5,1.4-1.5,1.4h-4.5l14.2,37.4h0.2L861,202h-4.9c-0.8,0-1.4-0.4-1.4-1.4v-4.7
	c0-0.8,0.4-1.4,1.4-1.4h20.5c0.8,0,1.4,0.4,1.4,1.4v4.7c0,0.8-0.4,1.4-1.4,1.4h-6.2l-19.6,53.9c-2.4,6.5-4.9,11.3-7.5,14.2
	c-2.6,2.9-6.2,4.5-10.7,4.5c-4.5,0-8.4-1.5-11.6-4.3c-0.7-0.7-0.8-1.4-0.3-2l2.7-3.6c0.6-0.5,1.4-0.5,2-0.1c1.8,1.4,3.9,2.1,6.3,2.1
	c2.4,0,4.4-0.8,6-2.5c1.6-1.7,3.1-4.5,4.6-8.6l2.9-8.2h-1.6V247.6z"/>
</svg>
